# Blender v2.82 (sub 7) OBJ File: ''
# www.blender.org
mtllib metal.mtl
o Cube.002
v 0.485227 0.015000 -0.485227
v -0.485227 0.015000 -0.485227
v -0.360242 0.067611 -0.360242
v 0.360242 0.067611 -0.360242
v 0.500000 -0.015000 0.500000
v 0.500000 0.015000 0.500000
v -0.500000 0.015000 0.500000
v -0.500000 -0.015000 0.500000
v -0.500000 0.015000 -0.500000
v -0.500000 -0.015000 -0.500000
v 0.500000 -0.015000 -0.500000
v 0.500000 0.015000 -0.500000
v 0.485227 0.015000 0.485227
v -0.485227 0.015000 0.485227
v 0.360242 0.067611 0.360242
v 0.360242 0.083266 -0.360242
v 0.360242 0.083266 0.360242
v -0.360242 0.067611 0.360242
v -0.360242 0.083266 -0.360242
v -0.360242 0.083266 0.360242
vt 0.628693 0.503693
vt 0.871307 0.503693
vt 0.871307 0.503693
vt 0.628693 0.503693
vt 0.375000 0.750000
vt 0.625000 0.750000
vt 0.625000 1.000000
vt 0.375000 1.000000
vt 0.375000 0.000000
vt 0.625000 0.000000
vt 0.625000 0.250000
vt 0.375000 0.250000
vt 0.125000 0.500000
vt 0.375000 0.500000
vt 0.125000 0.750000
vt 0.625000 0.500000
vt 0.628693 0.746307
vt 0.871307 0.746307
vt 0.875000 0.750000
vt 0.875000 0.500000
vt 0.628693 0.746307
vt 0.628693 0.503693
vt 0.628693 0.746307
vt 0.871307 0.746307
vt 0.871307 0.503693
vt 0.871307 0.746307
vn 0.0000 0.9217 -0.3880
vn 0.0000 0.0000 1.0000
vn -1.0000 0.0000 0.0000
vn 0.0000 -1.0000 -0.0000
vn 1.0000 0.0000 0.0000
vn 0.0000 0.0000 -1.0000
vn 0.0000 1.0000 0.0000
vn 0.3880 0.9217 0.0000
vn -0.3880 0.9217 0.0000
vn 0.0000 0.9217 0.3880
usemtl Material.003
s 1
f 1/1/1 2/2/1 3/3/1 4/4/1
f 5/5/2 6/6/2 7/7/2 8/8/2
f 8/9/3 7/10/3 9/11/3 10/12/3
f 10/13/4 11/14/4 5/5/4 8/15/4
f 11/14/5 12/16/5 6/6/5 5/5/5
f 10/12/6 9/11/6 12/16/6 11/14/6
f 13/17/7 14/18/7 7/19/7 6/6/7
f 1/1/7 13/17/7 6/6/7 12/16/7
f 14/18/7 2/2/7 9/20/7 7/19/7
f 2/2/7 1/1/7 12/16/7 9/20/7
f 15/21/5 4/4/5 16/22/5 17/23/5
f 13/17/8 1/1/8 4/4/8 15/21/8
f 2/2/9 14/18/9 18/24/9 3/3/9
f 14/18/10 13/17/10 15/21/10 18/24/10
f 16/22/7 19/25/7 20/26/7 17/23/7
f 3/3/3 18/24/3 20/26/3 19/25/3
f 18/24/2 15/21/2 17/23/2 20/26/2
f 4/4/6 3/3/6 19/25/6 16/22/6
